<?xml version="1.0" encoding="UTF-8" standalone="no"?>
<svg
   width="15px"
   height="15px"
   viewBox="0 0 15 15"
   fill="none"
   version="1.1"
   id="svg4"
   sodipodi:docname="button.svg"
   inkscape:version="1.1.2 (0a00cf5339, 2022-02-04)"
   xmlns:inkscape="http://www.inkscape.org/namespaces/inkscape"
   xmlns:sodipodi="http://sodipodi.sourceforge.net/DTD/sodipodi-0.dtd"
   xmlns="http://www.w3.org/2000/svg"
   xmlns:svg="http://www.w3.org/2000/svg">
  <defs
     id="defs8" />
  <sodipodi:namedview
     id="namedview6"
     pagecolor="#ffffff"
     bordercolor="#666666"
     borderopacity="1.0"
     inkscape:pageshadow="2"
     inkscape:pageopacity="0.0"
     inkscape:pagecheckerboard="0"
     showgrid="false"
     inkscape:zoom="42"
     inkscape:cx="7.1666667"
     inkscape:cy="7.5"
     inkscape:window-width="1920"
     inkscape:window-height="1012"
     inkscape:window-x="0"
     inkscape:window-y="0"
     inkscape:window-maximized="1"
     inkscape:current-layer="svg4" />
  <path
     fill-rule="evenodd"
     clip-rule="evenodd"
     d="M2 5H13C13.5523 5 14 5.44772 14 6V9C14 9.55228 13.5523 10 13 10H2C1.44772 10 1 9.55228 1 9V6C1 5.44772 1.44772 5 2 5ZM0 6C0 4.89543 0.895431 4 2 4H13C14.1046 4 15 4.89543 15 6V9C15 10.1046 14.1046 11 13 11H2C0.89543 11 0 10.1046 0 9V6ZM4.5 6.75C4.08579 6.75 3.75 7.08579 3.75 7.5C3.75 7.91421 4.08579 8.25 4.5 8.25C4.91421 8.25 5.25 7.91421 5.25 7.5C5.25 7.08579 4.91421 6.75 4.5 6.75ZM6.75 7.5C6.75 7.08579 7.08579 6.75 7.5 6.75C7.91421 6.75 8.25 7.08579 8.25 7.5C8.25 7.91421 7.91421 8.25 7.5 8.25C7.08579 8.25 6.75 7.91421 6.75 7.5ZM10.5 6.75C10.0858 6.75 9.75 7.08579 9.75 7.5C9.75 7.91421 10.0858 8.25 10.5 8.25C10.9142 8.25 11.25 7.91421 11.25 7.5C11.25 7.08579 10.9142 6.75 10.5 6.75Z"
     fill="currentColor"
     id="path2"
     style="fill:#41414e;fill-opacity:1" />
</svg>
