<?xml version="1.0" encoding="UTF-8" standalone="no"?>
<svg
   width="36px"
   height="36px"
   viewBox="0 0 36 36"
   version="1.1"
   preserveAspectRatio="xMidYMid meet"
   id="svg16"
   sodipodi:docname="container.svg"
   inkscape:version="1.1.2 (0a00cf5339, 2022-02-04)"
   xmlns:inkscape="http://www.inkscape.org/namespaces/inkscape"
   xmlns:sodipodi="http://sodipodi.sourceforge.net/DTD/sodipodi-0.dtd"
   xmlns="http://www.w3.org/2000/svg"
   xmlns:svg="http://www.w3.org/2000/svg"
   xmlns:rdf="http://www.w3.org/1999/02/22-rdf-syntax-ns#"
   xmlns:cc="http://creativecommons.org/ns#"
   xmlns:dc="http://purl.org/dc/elements/1.1/">
  <defs
     id="defs20" />
  <sodipodi:namedview
     id="namedview18"
     pagecolor="#ffffff"
     bordercolor="#666666"
     borderopacity="1.0"
     inkscape:pageshadow="2"
     inkscape:pageopacity="0.0"
     inkscape:pagecheckerboard="0"
     showgrid="false"
     inkscape:zoom="17.5"
     inkscape:cx="17.2"
     inkscape:cy="18"
     inkscape:window-width="1920"
     inkscape:window-height="1012"
     inkscape:window-x="0"
     inkscape:window-y="0"
     inkscape:window-maximized="1"
     inkscape:current-layer="svg16" />
  <title
     id="title2">container-line</title>
  <path
     d="M32,30H4a2,2,0,0,1-2-2V8A2,2,0,0,1,4,6H32a2,2,0,0,1,2,2V28A2,2,0,0,1,32,30ZM4,8V28H32V8Z"
     class="clr-i-outline clr-i-outline-path-1"
     id="path4"
     style="fill:#41414e;fill-opacity:1" />
  <path
     d="M9,25.3a.8.8,0,0,1-.8-.8v-13a.8.8,0,0,1,1.6,0v13A.8.8,0,0,1,9,25.3Z"
     class="clr-i-outline clr-i-outline-path-2"
     id="path6"
     style="fill:#41414e;fill-opacity:1" />
  <path
     d="M14.92,25.3a.8.8,0,0,1-.8-.8v-13a.8.8,0,0,1,1.6,0v13A.8.8,0,0,1,14.92,25.3Z"
     class="clr-i-outline clr-i-outline-path-3"
     id="path8"
     style="fill:#41414e;fill-opacity:1" />
  <path
     d="M21,25.3a.8.8,0,0,1-.8-.8v-13a.8.8,0,0,1,1.6,0v13A.8.8,0,0,1,21,25.3Z"
     class="clr-i-outline clr-i-outline-path-4"
     id="path10"
     style="fill:#41414e;fill-opacity:1" />
  <path
     d="M27,25.3a.8.8,0,0,1-.8-.8v-13a.8.8,0,0,1,1.6,0v13A.8.8,0,0,1,27,25.3Z"
     class="clr-i-outline clr-i-outline-path-5"
     id="path12"
     style="fill:#41414e;fill-opacity:1" />
  <rect
     x="0"
     y="0"
     width="36"
     height="36"
     fill-opacity="0"
     id="rect14" />
  <metadata
     id="metadata837">
    <rdf:RDF>
      <cc:Work
         rdf:about="">
        <dc:title>container-line</dc:title>
      </cc:Work>
    </rdf:RDF>
  </metadata>
</svg>
