<?xml version="1.0" encoding="UTF-8" standalone="no"?>
<!-- Generator: Adobe Illustrator 18.0.0, SVG Export Plug-In . SVG Version: 6.00 Build 0)  -->

<svg
   version="1.1"
   id="Capa_1"
   x="0px"
   y="0px"
   viewBox="0 0 51.096 51.096"
   style="enable-background:new 0 0 51.096 51.096;"
   xml:space="preserve"
   sodipodi:docname="pick-svgrepo-com.svg"
   inkscape:version="1.1.2 (0a00cf5339, 2022-02-04, custom)"
   xmlns:inkscape="http://www.inkscape.org/namespaces/inkscape"
   xmlns:sodipodi="http://sodipodi.sourceforge.net/DTD/sodipodi-0.dtd"
   xmlns="http://www.w3.org/2000/svg"
   xmlns:svg="http://www.w3.org/2000/svg"><defs
   id="defs37" /><sodipodi:namedview
   id="namedview35"
   pagecolor="#ffffff"
   bordercolor="#666666"
   borderopacity="1.0"
   inkscape:pageshadow="2"
   inkscape:pageopacity="0.0"
   inkscape:pagecheckerboard="0"
   showgrid="false"
   inkscape:zoom="12.29059"
   inkscape:cx="25.588682"
   inkscape:cy="25.548"
   inkscape:window-width="1920"
   inkscape:window-height="1012"
   inkscape:window-x="0"
   inkscape:window-y="0"
   inkscape:window-maximized="1"
   inkscape:current-layer="Capa_1" />
<path
   d="M51.06,32.356l-0.723-16.622c-0.052-1.195-0.546-2.319-1.393-3.166l-2.13-2.13l0.529-0.529  c0.819-0.819,1.27-1.908,1.27-3.066c0-2.391-1.945-4.336-4.336-4.336c-1.158,0-2.247,0.451-3.066,1.27l-0.529,0.529l-2.188-2.188  c-0.846-0.846-1.97-1.341-3.166-1.393L18.727,0.004L18.565,0c-2.025,0-4.498,1.258-4.825,4.8c-0.064,0.373-0.252,1.942,0.796,3.292  c0.844,1.086,2.216,1.683,4.128,1.775h11.021c0.74,0,1.436,0.288,1.959,0.811l1.334,1.334L1.296,43.693  c-1.69,1.691-1.69,4.442,0,6.132c0.819,0.819,1.908,1.271,3.066,1.271s2.247-0.451,3.066-1.271L39.11,18.145l1.276,1.276  c0.523,0.523,0.811,1.219,0.811,1.959l0.001,11.069c0.224,4.572,3.407,4.928,4.377,4.928c0.324,0,0.57-0.033,0.687-0.052  C50.284,36.953,51.16,33.903,51.06,32.356z"
   id="path2"
   style="fill:#81818e;fill-opacity:1"
   inkscape:export-filename="/home/ailenkr/Documents/Sites/aicelly-person (1)/img/path2.png"
   inkscape:export-xdpi="96"
   inkscape:export-ydpi="96" />
<g
   id="g4">
</g>
<g
   id="g6">
</g>
<g
   id="g8">
</g>
<g
   id="g10">
</g>
<g
   id="g12">
</g>
<g
   id="g14">
</g>
<g
   id="g16">
</g>
<g
   id="g18">
</g>
<g
   id="g20">
</g>
<g
   id="g22">
</g>
<g
   id="g24">
</g>
<g
   id="g26">
</g>
<g
   id="g28">
</g>
<g
   id="g30">
</g>
<g
   id="g32">
</g>
</svg>
