<?xml version="1.0" encoding="UTF-8" standalone="no"?>
<svg
   viewBox="0 0 32 32"
   version="1.1"
   id="svg7"
   sodipodi:docname="telega.svg"
   inkscape:version="1.1.2 (0a00cf5339, 2022-02-04, custom)"
   xmlns:inkscape="http://www.inkscape.org/namespaces/inkscape"
   xmlns:sodipodi="http://sodipodi.sourceforge.net/DTD/sodipodi-0.dtd"
   xmlns="http://www.w3.org/2000/svg"
   xmlns:svg="http://www.w3.org/2000/svg">
  <defs
     id="defs11" />
  <sodipodi:namedview
     id="namedview9"
     pagecolor="#ffffff"
     bordercolor="#666666"
     borderopacity="1.0"
     inkscape:pageshadow="2"
     inkscape:pageopacity="0.0"
     inkscape:pagecheckerboard="0"
     showgrid="false"
     inkscape:zoom="19.625"
     inkscape:cx="15.974522"
     inkscape:cy="16"
     inkscape:window-width="1920"
     inkscape:window-height="1012"
     inkscape:window-x="0"
     inkscape:window-y="0"
     inkscape:window-maximized="1"
     inkscape:current-layer="svg7" />
  <title
     id="title2" />
  <g
     data-name="telegram social media network chat"
     id="telegram_social_media_network_chat"
     style="fill:#ffffff;fill-opacity:1">
    <path
       d="M28.59,4.29a2.23,2.23,0,0,0-2.27-.36L3.41,13.1a1.83,1.83,0,0,0,0,3.38l1.48.61a1,1,0,0,0,1.31-.53,1,1,0,0,0-.54-1.31L4.56,14.8l22.51-9a.22.22,0,0,1,.23,0,.24.24,0,0,1,.08.23L23.27,25.21a.4.4,0,0,1-.26.3.39.39,0,0,1-.39-.06l-8-6.24,7.83-7.91a1,1,0,0,0-1.22-1.56L9.75,16.54a1,1,0,1,0,1,1.72l4.83-2.85L13.23,17.8a2,2,0,0,0,.2,3.08l8,6.15a2.4,2.4,0,0,0,1.47.5,2.47,2.47,0,0,0,.83-.15,2.37,2.37,0,0,0,1.52-1.75L29.33,6.47A2.23,2.23,0,0,0,28.59,4.29Z"
       id="path4"
       style="fill:#ffffff;fill-opacity:1" />
  </g>
</svg>
